<svg id="Layer_1" data-name="Layer 1" xmlns="http://www.w3.org/2000/svg" viewBox="0 0 493.62 493.62"><defs><style>.cls-1{fill:#fff;}</style></defs><title>musubi</title><circle class="cls-1" cx="246.81" cy="246.81" r="202.58"/><path d="M250,3.19C113.69,3.19,3.19,113.69,3.19,250S113.69,496.81,250,496.81,496.81,386.31,496.81,250,386.31,3.19,250,3.19Zm.45,464.54H250c-120-.21-217.25-97.57-217.25-217.64S130,32.7,250,32.43h.29l-.59.52a287.79,287.79,0,0,0,.18,434.41A217.85,217.85,0,0,1,250,250,217.56,217.56,0,0,0,438.36,358.82H439l-.33.56A217.55,217.55,0,0,1,250.45,467.73Z" transform="translate(-3.19 -3.19)"/></svg>